<svg width="25" height="26" viewBox="0 0 25 26" fill="none" xmlns="http://www.w3.org/2000/svg">
<g clip-path="url(#clip0_80_6)">
<path d="M24.9868 13.2431C24.9868 12.1779 24.9017 11.4006 24.7177 10.5945H12.749V15.4023H19.7743C19.6328 16.5971 18.8679 18.3965 17.1682 19.6056L17.1443 19.7665L20.9286 22.7459L21.1908 22.7725C23.5987 20.5125 24.9868 17.1873 24.9868 13.2431Z" fill="#4285F4"/>
<path d="M12.749 25.9106C16.1908 25.9106 19.0803 24.759 21.1908 22.7726L17.1682 19.6056C16.0917 20.3686 14.647 20.9012 12.749 20.9012C9.37797 20.9012 6.51684 18.6412 5.49692 15.5176L5.34743 15.5305L1.41248 18.6254L1.36102 18.7708C3.45729 23.0028 7.7632 25.9106 12.749 25.9106Z" fill="#34A853"/>
<path d="M5.49691 15.5175C5.22779 14.7114 5.07205 13.8477 5.07205 12.9552C5.07205 12.0627 5.22779 11.199 5.48275 10.393L5.47562 10.2213L1.49136 7.07666L1.361 7.13968C0.497031 8.89587 0.00128174 10.868 0.00128174 12.9552C0.00128174 15.0425 0.497031 17.0145 1.361 18.7707L5.49691 15.5175Z" fill="#FBBC05"/>
<path d="M12.749 5.00937C15.1427 5.00937 16.7574 6.06018 17.6781 6.93833L21.2758 3.36839C19.0662 1.28115 16.1908 0 12.749 0C7.76319 0 3.45729 2.90773 1.36102 7.13978L5.48277 10.3931C6.51684 7.26938 9.37797 5.00937 12.749 5.00937Z" fill="#EB4335"/>
</g>
<defs>
<clipPath id="clip0_80_6">
<rect width="25" height="26" fill="white"/>
</clipPath>
</defs>
</svg>
